<svg width="37" height="36" viewBox="0 0 37 36" fill="none" xmlns="http://www.w3.org/2000/svg">
<g clip-path="url(#clip0)">
<path d="M32.9419 0.26416H3.88523C2.11299 0.26416 0.67627 1.70088 0.67627 3.47312V32.5297C0.67627 34.302 2.11299 35.7387 3.88523 35.7387H32.9418C34.7141 35.7387 36.1508 34.302 36.1508 32.5297V3.47312C36.1508 1.70088 34.7141 0.26416 32.9419 0.26416ZM11.6536 30.8952C11.6536 31.411 11.2355 31.8291 10.7197 31.8291H6.74456C6.22878 31.8291 5.8107 31.411 5.8107 30.8952V14.2314C5.8107 13.7156 6.22878 13.2975 6.74456 13.2975H10.7197C11.2355 13.2975 11.6536 13.7156 11.6536 14.2314V30.8952ZM8.73215 11.7267C6.64649 11.7267 4.95569 10.0359 4.95569 7.95025C4.95569 5.86459 6.64649 4.17379 8.73215 4.17379C10.8178 4.17379 12.5086 5.86459 12.5086 7.95025C12.5086 10.0359 10.8179 11.7267 8.73215 11.7267ZM32.4279 30.9705C32.4279 31.4446 32.0434 31.8291 31.5692 31.8291H27.3036C26.8294 31.8291 26.4449 31.4446 26.4449 30.9705V23.1542C26.4449 21.9881 26.7869 18.0446 23.3977 18.0446C20.7688 18.0446 20.2356 20.7438 20.1285 21.9552V30.9705C20.1285 31.4446 19.7441 31.8291 19.2699 31.8291H15.1442C14.6701 31.8291 14.2856 31.4446 14.2856 30.9705V14.1562C14.2856 13.682 14.6701 13.2975 15.1442 13.2975H19.2699C19.744 13.2975 20.1285 13.682 20.1285 14.1562V15.61C21.1033 14.1471 22.552 13.0179 25.6365 13.0179C32.467 13.0179 32.4279 19.3993 32.4279 22.9055V30.9705Z" fill="white"/>
</g>
<defs>
<clipPath id="clip0">
<rect width="35.4746" height="35.4746" fill="white" transform="translate(0.67627 0.26416)"/>
</clipPath>
</defs>
</svg>
