<svg width="51" height="36" viewBox="0 0 51 36" fill="none" xmlns="http://www.w3.org/2000/svg">
<path fill-rule="evenodd" clip-rule="evenodd" d="M45.1657 1.34942C47.3362 1.934 49.0478 3.64521 49.632 5.81611C50.7176 9.78135 50.6759 18.0466 50.6759 18.0466C50.6759 18.0466 50.6759 26.2698 49.6324 30.2354C49.0478 32.4059 47.3366 34.1175 45.1657 34.7017C41.2 35.7456 25.3379 35.7456 25.3379 35.7456C25.3379 35.7456 9.51719 35.7456 5.5102 34.6604C3.33929 34.0758 1.62808 32.3642 1.0435 30.1937C0 26.2698 0 18.0049 0 18.0049C0 18.0049 0 9.78135 1.0435 5.81611C1.6277 3.64559 3.38105 1.89224 5.50981 1.30805C9.47543 0.26416 25.3375 0.26416 25.3375 0.26416C25.3375 0.26416 41.2 0.26416 45.1657 1.34942ZM33.4779 18.0054L20.2874 25.6027V10.4082L33.4779 18.0054Z" fill="white"/>
</svg>
