<svg id="Layer_1" data-name="Layer 1" xmlns="http://www.w3.org/2000/svg" viewBox="0 0 1080 1080"><path d="M626.6,490.5c108.2,18.1,162.3,27.2,209.2,53.4S919,611.2,991.4,693.6l41.6,47.3c13.4,15.2,20.1,22.9,17.4,29.6s-12.8,7.6-33,9.3L865.3,792.7c-4.1.3-6.1.5-7.6,1.7s-2.3,3-3.7,6.8L784.6,980.5c-7.1,18.3-10.6,27.4-18,28s-12.1-7.8-21.7-24.4C704.8,914.3,619.5,750.8,540,500.4c-109-342.4,45.6-16.8,45.6-16.8Z" style="fill:#fff;stroke:#ec3750;stroke-width:45.2041015625px"/><path d="M453,490.5c-108.2,18.1-162.3,27.2-209.2,53.4S160.6,611.2,88.2,693.6L46.6,740.9c-13.4,15.2-20.1,22.9-17.4,29.6s12.8,7.6,33,9.3l152.1,12.9c4.1.3,6.1.5,7.6,1.7s2.3,3,3.7,6.8L295,980.5c7.1,18.3,10.6,27.4,18,28s12.1-7.8,21.7-24.4c40.1-69.8,125.4-233.3,204.9-483.7C648.6,158,494,483.6,494,483.6Z" style="fill:#fff;stroke:#ec3750;stroke-width:45.2041015625px"/><path d="M744.8,136,601.9,205.8c-22.5,11-28.6,14.2-33.1,18.5a48.38,48.38,0,0,0-9.7,12.3c-3,5.4-4.8,12.1-10.3,36.5-11.6,51.6-19.9,88.4-23.6,117.3-3.7,28.6-2.3,46.1,2.8,59.8a115,115,0,0,0,44.8,56c12.3,8,29,13.1,57.8,15.9,29,2.7,66.7,2.8,119.6,2.8h74.1c53.3,0,91.3,0,120.5-2.8,28.9-2.8,45.8-8,58.2-16.2a114.9,114.9,0,0,0,43.7-54.1c5.4-13.8,6.9-31.4,3.5-60.3-3.4-29.1-11.4-66.3-22.7-118.3-11.1-51.6-19.1-88.4-27.9-116-8.7-27.4-17.3-42.3-27.6-52.2a109.38,109.38,0,0,0-60.8-29.5c-14.1-2-31.2.6-58.1,10.6C826,96.3,792.2,112.8,744.8,136Z" style="fill:#fff;stroke:#ec3750;stroke-width:55.2494010925293px"/><path d="M336.6,136l142.9,69.8c22.5,11,28.6,14.2,33.1,18.5a48.38,48.38,0,0,1,9.7,12.3c3,5.4,4.8,12.1,10.3,36.5,11.6,51.6,19.9,88.4,23.6,117.3,3.7,28.6,2.3,46.1-2.8,59.8a115,115,0,0,1-44.8,56c-12.3,8-29,13.1-57.8,15.9-29,2.7-66.7,2.8-119.6,2.8H257.1c-53.3,0-91.3,0-120.5-2.8-28.9-2.8-45.8-8-58.2-16.2a114.9,114.9,0,0,1-43.7-54.1c-5.4-13.8-6.9-31.4-3.5-60.3,3.4-29.1,11.4-66.3,22.7-118.3C65,221.6,73,184.8,81.8,157.2c8.7-27.4,17.3-42.3,27.6-52.2a109.38,109.38,0,0,1,60.8-29.5c14.1-2,31.2.6,58.1,10.6C255.4,96.3,289.2,112.8,336.6,136Z" style="fill:#fff;stroke:#ec3750;stroke-width:55.2494010925293px"/><path d="M524.8,197.8h29.4a94.49,94.49,0,0,1,94.5,94.5V440.9a94.49,94.49,0,0,1-94.5,94.5H524.8a94.49,94.49,0,0,1-94.5-94.5V292.3A94.62,94.62,0,0,1,524.8,197.8Z" style="fill:#fff;stroke:#ec3750;stroke-width:49.538700103759766px"/></svg>