<svg id="Layer_1" data-name="Layer 1" xmlns="http://www.w3.org/2000/svg" viewBox="0 0 1257 500"><path d="M612.71,318V175H667q27.46,0,41.08,12.26,13.62,12,13.62,32.46,0,15.43-8.85,26.78-8.62,11.13-25.42,15.44L726,318H690.8l-35.19-53.57H642.68V318Zm54.94-118h-25v39.5h25q11.57,0,17.47-5,6.14-5.22,6.13-14.75t-6.81-14.53Q677.85,200,667.65,200Zm87,7.26a19.36,19.36,0,0,1-19.52-19.52,18.59,18.59,0,0,1,5.67-13.62,19.35,19.35,0,0,1,13.85-5.67,19.36,19.36,0,0,1,19.29,19.29,19.35,19.35,0,0,1-5.67,13.85A18.57,18.57,0,0,1,754.6,207.22ZM739.62,318V220.16h30V318ZM896.3,269.2a63.53,63.53,0,0,1-3.63,22.24A51.13,51.13,0,0,1,882.91,308a39.12,39.12,0,0,1-13.85,10,39.53,39.53,0,0,1-16.12,3.4,42.41,42.41,0,0,1-18.84-4.31,36.77,36.77,0,0,1-14.52-13.62V318h-30V163.64h30v71.05A35.14,35.14,0,0,1,834.1,221.3a40.69,40.69,0,0,1,18.84-4.54,39.53,39.53,0,0,1,16.12,3.4,38,38,0,0,1,13.85,10.22,48.47,48.47,0,0,1,9.76,16.34A64.28,64.28,0,0,1,896.3,269.2ZM843,241.73A22.64,22.64,0,0,0,825.7,249q-6.57,7.27-6.58,20.21,0,12.71,6.58,20A22.64,22.64,0,0,0,843,296.43q10.89,0,17-7.71,6.13-8,6.13-19.52T860,249.67Q853.86,241.74,843,241.73Zm174.71,27.47a63.53,63.53,0,0,1-3.63,22.24,51,51,0,0,1-9.76,16.57,39,39,0,0,1-13.85,10,39.45,39.45,0,0,1-16.11,3.4,42.38,42.38,0,0,1-18.84-4.31A36.79,36.79,0,0,1,941,303.47V318H911V163.64h30v71.05a35.16,35.16,0,0,1,14.53-13.39,40.66,40.66,0,0,1,18.84-4.54,39.45,39.45,0,0,1,16.11,3.4,37.9,37.9,0,0,1,13.85,10.22,48.31,48.31,0,0,1,9.76,16.34A64.28,64.28,0,0,1,1017.67,269.2Zm-53.34-27.47A22.63,22.63,0,0,0,947.08,249q-6.58,7.27-6.59,20.21,0,12.71,6.59,20a22.63,22.63,0,0,0,17.25,7.26q10.89,0,17-7.71,6.14-8,6.13-19.52t-6.13-19.53Q975.23,241.74,964.33,241.73ZM1080,321.4a55.72,55.72,0,0,1-20.66-3.85,53.26,53.26,0,0,1-17-10.67,50.8,50.8,0,0,1-11.58-16.35,54.75,54.75,0,0,1-4.09-21.33,52.57,52.57,0,0,1,15.67-37.91,53.09,53.09,0,0,1,17-10.67,57.22,57.22,0,0,1,41.32,0,53.2,53.2,0,0,1,17,10.67,47.5,47.5,0,0,1,11.35,16.57,55,55,0,0,1,0,42.67,48,48,0,0,1-11.35,16.35,50.67,50.67,0,0,1-16.8,10.67A56.3,56.3,0,0,1,1080,321.4Zm0-25.65q10.89,0,17-7.26,6.36-7.26,6.36-19.29,0-12.27-6.36-19.53t-17-7.26q-10.44,0-17,7.26-6.35,7.28-6.35,19.53,0,12,6.13,19.29Q1069.13,295.75,1080,295.75ZM1147.75,318V220.16h30v15.21a35.84,35.84,0,0,1,12.94-13.85,34.24,34.24,0,0,1,17.93-4.76q16.8,0,26.79,11.8,10,11.58,10,32.24V318h-30V264.43q0-11.13-4.31-16.8-4.3-5.9-12.71-5.9-9.31,0-15,6.13-5.69,5.89-5.68,18.61V318Z" style="fill:#333"/><path d="M302.5,226.23c50.23,8.4,75.35,12.63,97.12,24.79s38.63,31.24,72.24,69.5l19.31,22c6.22,7,9.33,10.63,8.08,13.74s-5.94,3.53-15.32,4.32l-70.61,6c-1.9.13-2.83.23-3.53.78s-1.07,1.4-1.72,3.16l-32.22,83.24c-3.29,8.5-4.92,12.72-8.35,13s-5.62-3.62-10.08-11.33C338.81,423,299.21,347.07,262.3,230.83c-50.6-159,21.17-7.8,21.17-7.8Z" style="fill:#fff;stroke:#ec3750;stroke-width:20.985907940258127px"/><path d="M221.91,226.23c-50.23,8.4-75.35,12.63-97.12,24.79s-38.63,31.24-72.24,69.5l-19.31,22c-6.22,7-9.33,10.63-8.08,13.74s5.94,3.53,15.32,4.32l70.61,6c1.91.13,2.84.23,3.53.78s1.07,1.4,1.72,3.16l32.22,83.24c3.29,8.5,4.92,12.72,8.35,13s5.62-3.62,10.08-11.33c18.62-32.4,58.22-108.31,95.12-224.55,50.61-159-21.17-7.8-21.17-7.8Z" style="fill:#fff;stroke:#ec3750;stroke-width:20.985907940258127px"/><path d="M357.38,61.65,291,94.06c-10.45,5.1-13.28,6.59-15.37,8.59a22.15,22.15,0,0,0-4.5,5.71c-1.4,2.5-2.23,5.61-4.79,16.94-5.38,24-9.23,41-10.95,54.46s-1.07,21.4,1.3,27.76a53.35,53.35,0,0,0,20.8,26c5.71,3.71,13.46,6.08,26.83,7.38s31,1.3,55.52,1.3h34.4c24.75,0,42.39,0,56-1.3,13.41-1.3,21.26-3.71,27-7.52a53.33,53.33,0,0,0,20.28-25.12c2.51-6.4,3.21-14.57,1.63-28s-5.29-30.78-10.54-54.92c-5.15-24-8.87-41-12.95-53.85s-8-19.64-12.82-24.24a50.69,50.69,0,0,0-28.22-13.69c-6.55-.93-14.49.28-27,4.92S379.38,50.88,357.38,61.65Z" style="fill:#fff;stroke:#ec3750;stroke-width:25.649416867164764px"/><path d="M167.87,61.65l66.34,32.41c10.45,5.1,13.28,6.59,15.37,8.59a22.36,22.36,0,0,1,4.5,5.71c1.39,2.5,2.23,5.61,4.78,16.94,5.39,24,9.24,41,11,54.46s1.07,21.4-1.3,27.76a53.35,53.35,0,0,1-20.8,26c-5.71,3.71-13.46,6.08-26.83,7.38s-31,1.3-55.53,1.3H131c-24.74,0-42.38,0-55.94-1.3s-21.26-3.71-27-7.52a53.41,53.41,0,0,1-20.29-25.12c-2.5-6.4-3.2-14.57-1.62-28s5.29-30.78,10.54-54.92c5.15-24,8.87-41,12.95-53.85s8-19.64,12.81-24.24A50.75,50.75,0,0,1,90.62,33.57c6.55-.93,14.48.28,27,4.92S145.87,50.88,167.87,61.65Z" style="fill:#fff;stroke:#ec3750;stroke-width:25.649416867164764px"/><path d="M255.24,90.34h13.65a43.87,43.87,0,0,1,43.87,43.88v69a43.86,43.86,0,0,1-43.87,43.87H255.24a43.86,43.86,0,0,1-43.87-43.87v-69A43.93,43.93,0,0,1,255.24,90.34Z" style="fill:#fff;stroke:#ec3750;stroke-width:22.998236087496803px"/></svg>