<svg width="98" height="98" viewBox="0 0 98 98" fill="none" xmlns="http://www.w3.org/2000/svg">
<path d="M49.0031 8.17065C71.555 8.17065 89.8365 26.4524 89.8365 49.0041C89.8365 71.5555 71.555 89.8374 49.0031 89.8374C26.4516 89.8374 8.16992 71.5555 8.16992 49.0041C8.16992 26.4524 26.4516 8.17065 49.0031 8.17065ZM52.1898 30.5022L51.846 30.2057C50.7806 29.415 49.3175 29.4052 48.2424 30.1764L47.8586 30.5022L47.5621 30.8457C46.7712 31.9114 46.7614 33.3741 47.5327 34.4496L47.8586 34.8333L58.9636 45.9387H31.6462L31.2307 45.9665C29.8717 46.151 28.796 47.2266 28.6117 48.5855L28.5837 49.0012L28.6117 49.4165C28.796 50.7754 29.8717 51.8514 31.2307 52.0355L31.6462 52.0637H58.9636L47.8561 63.172L47.5597 63.5154C46.6699 64.7139 46.7683 66.4154 47.8553 67.5028C48.9423 68.5902 50.6438 68.6894 51.8427 67.8001L52.1865 67.5036L68.526 51.1703L68.8224 50.8269C69.6134 49.7611 69.6236 48.2985 68.8522 47.2225L68.5264 46.8391L52.1898 30.5022L51.846 30.2057L52.1898 30.5022Z" fill="#EC3750"/>
</svg>
