<svg width="148" height="148" viewBox="0 0 148 148" fill="none" xmlns="http://www.w3.org/2000/svg">
<path d="M74.0053 12.3394C108.063 12.3394 135.672 39.9485 135.672 74.0061C135.672 108.063 108.063 135.673 74.0053 135.673C39.948 135.673 12.3389 108.063 12.3389 74.0061C12.3389 39.9485 39.948 12.3394 74.0053 12.3394ZM78.8178 46.0646L78.2986 45.6168C76.6897 44.4227 74.4802 44.4079 72.8565 45.5726L72.2768 46.0646L71.8291 46.5833C70.6346 48.1928 70.6198 50.4017 71.7847 52.026L72.2768 52.6053L89.0477 69.3768H47.7929L47.1653 69.4188C45.113 69.6975 43.4885 71.3218 43.2101 73.3741L43.1679 74.0018L43.2101 74.629C43.4885 76.6813 45.113 78.3062 47.1653 78.5843L47.7929 78.6268H89.0477L72.2731 95.4026L71.8254 95.9212C70.4817 97.7312 70.6303 100.301 72.2719 101.943C73.9135 103.585 76.4831 103.735 78.2936 102.392L78.8129 101.944L103.489 77.2776L103.937 76.7589C105.131 75.1494 105.146 72.9405 103.982 71.3156L103.489 70.7366L78.8178 46.0646L78.2986 45.6168L78.8178 46.0646Z" fill="white"/>
</svg>
